<svg width="38" height="38" viewBox="0 0 38 38" fill="none" xmlns="http://www.w3.org/2000/svg">
<path d="M27.7791 27.5303C26.3084 24.989 23.9996 23.2058 21.3169 22.4495C22.6212 21.7865 23.6642 20.7035 24.2777 19.3752C24.8912 18.0469 25.0394 16.5507 24.6986 15.1278C24.3577 13.7049 23.5475 12.4383 22.3987 11.5322C21.2499 10.6261 19.8294 10.1333 18.3662 10.1333C16.9031 10.1333 15.4826 10.6261 14.3337 11.5322C13.1849 12.4383 12.3748 13.7049 12.0339 15.1278C11.693 16.5507 11.8412 18.0469 12.4548 19.3752C13.0683 20.7035 14.1113 21.7865 15.4156 22.4495C12.7328 23.2048 10.424 24.9881 8.95333 27.5303C8.91294 27.5939 8.88583 27.6649 8.87361 27.7392C8.86139 27.8135 8.86433 27.8894 8.88224 27.9626C8.90015 28.0357 8.93266 28.1044 8.97782 28.1646C9.02298 28.2248 9.07986 28.2753 9.14503 28.313C9.2102 28.3507 9.28232 28.3748 9.35704 28.3838C9.43177 28.3929 9.50756 28.3868 9.57985 28.3658C9.65214 28.3448 9.71945 28.3094 9.77771 28.2618C9.83598 28.2141 9.884 28.1552 9.91889 28.0885C11.7058 25.0011 14.863 23.1583 18.3662 23.1583C21.8694 23.1583 25.0266 25.0011 26.8135 28.0885C26.8484 28.1552 26.8964 28.2141 26.9547 28.2618C27.013 28.3094 27.0803 28.3448 27.1526 28.3658C27.2249 28.3868 27.3007 28.3929 27.3754 28.3838C27.4501 28.3748 27.5222 28.3507 27.5874 28.313C27.6526 28.2753 27.7094 28.2248 27.7546 28.1646C27.7998 28.1044 27.8323 28.0357 27.8502 27.9626C27.8681 27.8894 27.871 27.8135 27.8588 27.7392C27.8466 27.6649 27.8195 27.5939 27.7791 27.5303ZM12.9709 16.6468C12.9709 15.5797 13.2874 14.5366 13.8802 13.6493C14.473 12.7621 15.3157 12.0706 16.3015 11.6622C17.2874 11.2539 18.3722 11.147 19.4188 11.3552C20.4654 11.5634 21.4267 12.0772 22.1812 12.8318C22.9358 13.5863 23.4496 14.5476 23.6578 15.5942C23.866 16.6408 23.7591 17.7256 23.3508 18.7115C22.9424 19.6973 22.2509 20.5399 21.3637 21.1328C20.4764 21.7256 19.4333 22.0421 18.3662 22.0421C16.9358 22.0403 15.5645 21.4713 14.5531 20.4599C13.5416 19.4485 12.9727 18.0772 12.9709 16.6468Z" fill="#0000FF"/>
<circle cx="19" cy="19" r="18.5" stroke="#0000FF"/>
<circle cx="18.9998" cy="19" r="14.7" stroke="#0000FF"/>
</svg>
